<?xml version="1.0" encoding="UTF-8"?>
<svg version="1.1" xmlns="http://www.w3.org/2000/svg" width="512" height="512">
<path d="M0 0 C1.13945068 -0.0071553 2.27890137 -0.01431061 3.45288086 -0.02168274 C4.69912735 -0.02437164 5.94537384 -0.02706055 7.22938538 -0.02983093 C8.54532684 -0.03640213 9.86126831 -0.04297333 11.21708679 -0.04974365 C15.58063037 -0.07075213 19.94417414 -0.08114796 24.30775452 -0.09111023 C25.81438782 -0.09515999 27.32102095 -0.09927698 28.82765388 -0.10346031 C35.91246005 -0.1225106 42.99725585 -0.13673793 50.08208269 -0.14507228 C58.23449865 -0.15482278 66.3866415 -0.18108536 74.53896135 -0.22157317 C80.8551187 -0.25185403 87.17119835 -0.26655272 93.48742682 -0.26985329 C97.25218785 -0.27219157 101.01665713 -0.28098984 104.78133965 -0.30631447 C108.33142912 -0.32980875 111.88103924 -0.3337442 115.43118668 -0.32355309 C117.33356116 -0.3228313 119.23591247 -0.34177469 121.13818359 -0.36161804 C133.6781785 -0.28686422 144.90119725 2.68038926 154.40541077 11.14717102 C161.93731309 18.93979304 166.50457703 28.75089876 166.55258179 39.63459778 C166.56331474 41.30807785 166.56331474 41.30807785 166.57426453 43.0153656 C166.57695343 44.23513092 166.57964233 45.45489624 166.58241272 46.71162415 C166.58898392 47.99991119 166.59555511 49.28819824 166.60232544 50.61552429 C166.62333016 54.88647728 166.63372852 59.15743046 166.64369202 63.42842102 C166.64774174 64.90288308 166.65185873 66.37734495 166.6560421 67.85180664 C166.67509056 74.78443891 166.68931898 81.71706059 166.69765407 88.64971399 C166.70740769 96.62895099 166.73367927 104.60790919 166.77415496 112.58704805 C166.80442348 118.76815911 166.8191333 124.94919077 166.82243508 131.13037443 C166.82477451 134.81518154 166.83358819 138.49969073 166.85889626 142.18441772 C166.8867443 146.30564062 166.88231327 150.42625031 166.87538147 154.54756165 C166.89459656 156.35291885 166.89459656 156.35291885 166.91419983 158.19474792 C166.83958472 170.42545803 163.54511855 180.86533033 155.40541077 190.14717102 C147.15008843 198.14163744 137.13714145 202.25325192 125.67037964 202.28761292 C124.52521881 202.29332306 123.38005798 202.2990332 122.20019531 202.30491638 C120.95283096 202.30603424 119.70546661 202.3071521 118.42030334 202.30830383 C117.0860531 202.31293606 115.75180417 202.31796126 114.41755676 202.323349 C110.79952868 202.33643779 107.18151913 202.34291129 103.56347108 202.34735966 C101.29946983 202.35029663 99.03547357 202.35440265 96.77147484 202.35886383 C89.67759819 202.37253072 82.58373304 202.38220081 75.48984414 202.38606572 C67.32047817 202.39054186 59.15127989 202.40807242 50.98196489 202.43706632 C44.65479279 202.45873709 38.32766768 202.4687729 32.0004589 202.47010684 C28.22748238 202.4711512 24.45466367 202.47697952 20.68172646 202.49492645 C17.12840719 202.5115004 13.57536277 202.51351794 10.02201843 202.50478745 C8.11074817 202.50365956 6.19948664 202.51730548 4.28826904 202.53153992 C-7.98768493 202.47256551 -18.69542277 199.5705329 -27.86021423 191.03779602 C-37.7351051 180.43143176 -39.89557028 170.21808644 -39.88511658 156.05854797 C-39.8918338 154.7503157 -39.89855103 153.44208344 -39.9054718 152.09420776 C-39.92307193 148.51953149 -39.92782474 144.9449511 -39.92910337 141.37023568 C-39.93052936 139.131327 -39.93480749 136.89244235 -39.94009781 134.65353966 C-39.95858093 126.82661276 -39.96677091 118.99975379 -39.9651947 111.17280579 C-39.96399497 103.90360172 -39.98506838 96.63469536 -40.01668203 89.36556655 C-40.042934 83.10370449 -40.05355822 76.8419391 -40.05228388 70.58002251 C-40.0517767 66.84944849 -40.05732309 63.11913906 -40.07863998 59.38862038 C-40.10181238 55.21979959 -40.09244729 51.05163473 -40.08042908 46.88276672 C-40.09166809 45.66520691 -40.1029071 44.44764709 -40.11448669 43.19319153 C-40.02646859 31.11986477 -37.13811286 20.92707672 -28.59458923 12.14717102 C-20.59802592 4.65596673 -11.03329516 0.04764065 0 0 Z M-18.17449188 25.12705994 C-23.57023311 32.80258771 -24.17669664 40.7466922 -24.11216736 49.87373352 C-24.11917664 51.10758789 -24.12618591 52.34144226 -24.13340759 53.61268616 C-24.14790845 56.96838219 -24.14463449 60.32308031 -24.13189125 63.67871857 C-24.12168809 67.20809158 -24.13117706 70.73742505 -24.13743591 74.26679993 C-24.14469122 80.19119321 -24.1351806 86.11538633 -24.11607361 92.03974915 C-24.09430874 98.86659348 -24.10136163 105.69295979 -24.12337923 112.51979256 C-24.14159398 118.40549339 -24.14406206 124.29105122 -24.13362455 130.17677116 C-24.12742279 133.68140866 -24.1264615 137.18582227 -24.13977051 140.69044495 C-24.15358552 144.60068508 -24.13438046 148.51039971 -24.11216736 152.42060852 C-24.12026428 153.56583984 -24.12836121 154.71107117 -24.13670349 155.89100647 C-24.0451643 164.62596992 -22.460022 172.32731042 -16.53208923 179.02217102 C-8.65954506 186.11883305 1.32860446 186.73305584 11.44496155 186.64888 C12.70007538 186.65428299 13.95518921 186.65968597 15.24833679 186.66525269 C18.65763008 186.67554487 22.06593687 186.66812454 25.475142 186.65154147 C29.0610219 186.63757858 32.64687547 186.6441635 36.23277283 186.64767456 C42.24954872 186.65036719 48.26612403 186.6369808 54.28285217 186.61372375 C61.21930557 186.58709566 68.1554244 186.58537811 75.09191144 186.59711212 C81.79337691 186.60792337 88.49472245 186.60167823 95.19617844 186.58755684 C98.03567751 186.5818284 100.87508791 186.5818547 103.71458817 186.58662224 C107.68473538 186.5923188 111.65455319 186.57299394 115.62464905 186.55122375 C116.79060608 186.5557254 117.95656311 186.56022705 119.15785217 186.56486511 C128.94112988 186.47599194 136.43514864 184.92673023 143.67884827 178.11592102 C148.56304426 172.54661156 150.51830594 166.26503465 150.55258179 158.95672607 C150.55973709 157.90694077 150.5668924 156.85715546 150.57426453 155.77555847 C150.57695343 154.62902802 150.57964233 153.48249756 150.58241272 152.30122375 C150.59226952 150.48342659 150.59226952 150.48342659 150.60232544 148.62890625 C150.62205705 144.61285656 150.63372708 140.59684682 150.64369202 136.58076477 C150.64774189 135.19419396 150.65185888 133.80762335 150.6560421 132.42105293 C150.67508807 125.90222333 150.68931758 119.38340498 150.69765407 112.86455292 C150.70740979 105.36129228 150.73368786 97.85832796 150.77415496 90.35517162 C150.80441807 84.5426505 150.81913274 78.73021379 150.82243508 72.91761547 C150.82477493 69.45248532 150.83359418 65.98767189 150.85889626 62.52262688 C150.88673213 58.64795071 150.8823148 54.77365695 150.87538147 50.89888 C150.88819153 49.76651917 150.90100159 48.63415833 150.91419983 47.46748352 C150.8597648 39.08310755 149.50054677 31.2661283 144.36244202 24.42842102 C143.30089905 23.54670227 143.30089905 23.54670227 142.21791077 22.64717102 C141.52310608 22.03873352 140.82830139 21.43029602 140.11244202 20.80342102 C132.32658541 16.03978003 124.56804768 15.70858868 115.62464905 15.74311829 C114.37303986 15.73625504 113.12143066 15.72939178 111.83189392 15.72232056 C108.42252015 15.70722767 105.01369652 15.70553859 101.60433054 15.71126294 C98.74676977 15.71436983 95.88925764 15.70824567 93.03170383 15.7022242 C86.28399797 15.68821283 79.5364188 15.68971143 72.78871155 15.7011261 C65.85343004 15.71259964 58.91853561 15.69853704 51.9833051 15.67172962 C46.00505437 15.64949609 40.02692446 15.64295251 34.04863536 15.64880604 C30.48860387 15.65215915 26.92882028 15.64987156 23.36882401 15.63255501 C19.39405178 15.61406206 15.41974701 15.62835147 11.44496155 15.64546204 C10.28305298 15.63579407 9.12114441 15.6261261 7.92402649 15.61616516 C-1.9222524 15.70451702 -11.3870063 17.46144165 -18.17449188 25.12705994 Z " fill="#8651E0" transform="translate(193.59458923339844,154.8528289794922)"/>
<path d="M0 0 C0.88816406 -0.00386719 1.77632812 -0.00773438 2.69140625 -0.01171875 C7.4866066 1.20924976 10.26329401 3.72567142 12.74633789 7.87426758 C14.15132325 10.69423722 15.43037985 13.54852181 16.6875 16.4375 C17.1812915 17.53916504 17.67508301 18.64083008 18.18383789 19.77587891 C19.61896005 22.99108993 21.03780287 26.21267862 22.45025635 29.43786621 C23.90703768 32.75743631 25.3753931 36.0718647 26.84231567 39.38696289 C31.09887087 49.01076122 35.34898448 58.63763717 39.52685547 68.29589844 C40.69666955 70.99997007 41.88917874 73.69028327 43.11767578 76.36816406 C43.58544434 77.41456055 44.05321289 78.46095703 44.53515625 79.5390625 C44.93355713 80.40611816 45.33195801 81.27317383 45.74243164 82.16650391 C46.61940193 85.3472539 46.24258624 87.51159251 45.4375 90.6875 C43.875 93.0625 43.875 93.0625 41.4375 94.6875 C38.18154523 95.20431822 36.50177983 95.45969852 33.4375 94.6875 C27.99402371 90.13017101 25.75054881 83.26246429 23.4375 76.6875 C23.4375 76.0275 23.4375 75.3675 23.4375 74.6875 C7.9275 74.6875 -7.5825 74.6875 -23.5625 74.6875 C-24.5525 77.6575 -25.5425 80.6275 -26.5625 83.6875 C-27.87890625 86.46484375 -27.87890625 86.46484375 -29.125 88.625 C-29.74568359 89.72134766 -29.74568359 89.72134766 -30.37890625 90.83984375 C-31.5625 92.6875 -31.5625 92.6875 -33.5625 94.6875 C-37.52203995 95.00681774 -40.33189313 95.19236436 -44 93.6875 C-46.38257573 90.63780307 -46.66574637 87.45056756 -46.5625 83.6875 C-45.66886703 80.3426694 -44.25552203 77.31131142 -42.77734375 74.1875 C-42.36969788 73.28572525 -41.962052 72.3839505 -41.54205322 71.45484924 C-40.21254462 68.52387854 -38.85695039 65.60585397 -37.5 62.6875 C-36.11106947 59.65274557 -34.72765337 56.61551339 -33.3441925 53.57826233 C-32.41618076 51.5429274 -31.48574605 49.50869549 -30.55290222 47.47557068 C-27.72243774 41.29523728 -24.98915754 35.08461439 -22.359375 28.81640625 C-22.04549332 28.0736142 -21.73161163 27.33082214 -21.40821838 26.56552124 C-19.65347594 22.41390909 -19.65347594 22.41390909 -17.93356323 18.24780273 C-10.36358863 -0.28662036 -10.36358863 -0.28662036 0 0 Z M-1.5625 23.6875 C-3.5894177 28.1650521 -5.60106495 32.64903407 -7.59887695 37.13964844 C-8.28059287 38.66625092 -8.96644149 40.1910149 -9.65649414 41.71386719 C-10.64782106 43.90349352 -11.62408466 46.09930721 -12.59765625 48.296875 C-12.90905045 48.9761908 -13.22044464 49.65550659 -13.54127502 50.35540771 C-15.2282926 54.20859112 -15.62163218 55.45097129 -14.5625 59.6875 C-4.9925 59.6875 4.5775 59.6875 14.4375 59.6875 C15.64073472 54.87456111 14.43871137 52.58588334 12.47265625 48.296875 C12.00441689 47.23995453 12.00441689 47.23995453 11.52671814 46.16168213 C10.52855505 43.91531288 9.51456324 41.67650299 8.5 39.4375 C7.81990777 37.91453353 7.14085852 36.39110084 6.46289062 34.8671875 C4.79980845 31.13511009 3.12249601 27.40973176 1.4375 23.6875 C0.4475 23.6875 -0.5425 23.6875 -1.5625 23.6875 Z " fill="#8253E1" transform="translate(236.5625,206.3125)"/>
<path d="M0 0 C6.99603006 4.94386124 11.67436344 11.44526545 14.03125 19.71875 C15.77691315 30.54186153 13.82801272 39.58615122 7.37890625 48.5546875 C1.37674201 55.65929007 -5.90031853 58.83734717 -15.0390625 59.91015625 C-24.27537006 60.31802738 -32.08727417 57.82159667 -39.21875 51.90625 C-43.24835134 48.04304153 -46.29677137 43.80891667 -48.34375 38.59375 C-48.34375 37.60375 -48.34375 36.61375 -48.34375 35.59375 C-49.28694092 35.61993408 -50.23013184 35.64611816 -51.2019043 35.6730957 C-54.71508145 35.75851922 -58.22714908 35.82109298 -61.7409668 35.8684082 C-63.25904801 35.89349109 -64.77700918 35.9275666 -66.29467773 35.97094727 C-68.48190965 36.03188293 -70.66754039 36.06001895 -72.85546875 36.08203125 C-74.16990967 36.10821533 -75.48435059 36.13439941 -76.83862305 36.16137695 C-81.21827688 35.45212745 -82.65126538 34.04798908 -85.34375 30.59375 C-85.96875 27.59375 -85.96875 27.59375 -85.34375 24.59375 C-82.65126538 21.13951092 -81.21827688 19.73537255 -76.83862305 19.02612305 C-75.52418213 19.05230713 -74.20974121 19.07849121 -72.85546875 19.10546875 C-72.15227005 19.11254349 -71.44907135 19.11961823 -70.7245636 19.12690735 C-68.49234773 19.15475788 -66.26269923 19.2174668 -64.03125 19.28125 C-62.51240619 19.30634549 -60.9935228 19.32915648 -59.47460938 19.34960938 C-55.76349752 19.40454993 -52.05387459 19.49075261 -48.34375 19.59375 C-48.13226318 18.42573853 -48.13226318 18.42573853 -47.91650391 17.23413086 C-46.51624636 10.7789794 -41.49052645 4.9062615 -36.375 0.87890625 C-25.17167495 -6.20935133 -11.40466232 -6.84279739 0 0 Z M-29.15625 16.96875 C-32.54560957 21.03598149 -33.57065681 23.77904087 -33.21875 29.03125 C-32.44501018 34.43843176 -30.36547564 38.00915423 -26.03125 41.40625 C-21.24471202 43.5212319 -17.22212709 44.12366192 -12.21875 42.53125 C-7.43679659 40.52561517 -4.66243875 37.23112751 -2.34375 32.59375 C-1.80339406 27.6685385 -1.79939531 23.72433282 -3.96875 19.21875 C-7.53562589 15.27641349 -10.62568817 13.06231232 -15.78125 11.65625 C-21.40307215 11.55762154 -24.90885319 13.38205936 -29.15625 16.96875 Z " fill="#A03EDC" transform="translate(461.34375,182.40625)"/>
<path d="M0 0 C4.07977143 0.84995238 5.41277811 2.39077044 8 5.625 C8.56762695 9.13012695 8.56762695 9.13012695 8.48828125 13.11328125 C8.48120651 13.81647995 8.47413177 14.51967865 8.46684265 15.2441864 C8.43899212 17.47640227 8.3762832 19.70605077 8.3125 21.9375 C8.28740451 23.45634381 8.26459352 24.9752272 8.24414062 26.49414062 C8.18920007 30.20525248 8.10299739 33.91487541 8 37.625 C8.77867432 37.76599121 9.55734863 37.90698242 10.35961914 38.05224609 C16.8147706 39.45250364 22.6874885 44.47822355 26.71484375 49.59375 C32.09715552 58.10074732 33.32208105 67.24731554 31.5625 77.06640625 C29.28598684 85.24762541 24.18147419 91.55016559 17.0625 96.0625 C8.6859429 100.6372914 0.33835996 101.92290623 -8.9375 99.5 C-17.61276582 96.63489685 -24.52098122 91.67862031 -29 83.625 C-32.80816929 74.95564491 -33.33420773 66.0316753 -30.5 57 C-26.99525556 48.39185576 -21.12390439 42.6830524 -12.98046875 38.40234375 C-11 37.625 -11 37.625 -8 37.625 C-8.02618408 36.68180908 -8.05236816 35.73861816 -8.0793457 34.7668457 C-8.16476922 31.25366855 -8.22734298 27.74160092 -8.2746582 24.2277832 C-8.29974109 22.70970199 -8.3338166 21.19174082 -8.37719727 19.67407227 C-8.43813293 17.48684035 -8.46626895 15.30120961 -8.48828125 13.11328125 C-8.51446533 11.79884033 -8.54064941 10.48439941 -8.56762695 9.13012695 C-7.72457369 3.92422775 -5.19753339 1.08281946 0 0 Z M-13.4375 59.4375 C-15.88536225 64.43113899 -16.61916082 68.42474072 -14.9375 73.75 C-12.93186517 78.53195341 -9.63737751 81.30631125 -5 83.625 C-0.0747885 84.16535594 3.86941718 84.16935469 8.375 82 C12.31733651 78.43312411 14.53143768 75.34306183 15.9375 70.1875 C16.03612846 64.56567785 14.21169064 61.05989681 10.625 56.8125 C7.16871023 53.93225852 4.62256074 52.84134143 0.1875 52.25 C-5.5540399 52.92547528 -9.65295154 55.07071332 -13.4375 59.4375 Z " fill="#D01DD3" transform="translate(302,375.375)"/>
<path d="M0 0 C7.10460257 6.00216424 10.28265967 13.27922478 11.35546875 22.41796875 C11.76333988 31.65427631 9.26690917 39.46618042 3.3515625 46.59765625 C-0.51164597 50.62725759 -4.74577083 53.67567762 -9.9609375 55.72265625 C-10.9509375 55.72265625 -11.9409375 55.72265625 -12.9609375 55.72265625 C-12.93475342 56.66584717 -12.90856934 57.60903809 -12.8815918 58.58081055 C-12.79616828 62.0939877 -12.73359452 65.60605533 -12.6862793 69.11987305 C-12.66119641 70.63795426 -12.6271209 72.15591543 -12.58374023 73.67358398 C-12.52280457 75.8608159 -12.49466855 78.04644664 -12.47265625 80.234375 C-12.44647217 81.54881592 -12.42028809 82.86325684 -12.39331055 84.2175293 C-13.10256005 88.59718313 -14.50669842 90.03017163 -17.9609375 92.72265625 C-20.9609375 93.34765625 -20.9609375 93.34765625 -23.9609375 92.72265625 C-27.41517658 90.03017163 -28.81931495 88.59718313 -29.52856445 84.2175293 C-29.50238037 82.90308838 -29.47619629 81.58864746 -29.44921875 80.234375 C-29.44214401 79.5311763 -29.43506927 78.8279776 -29.42778015 78.10346985 C-29.39992962 75.87125398 -29.3372207 73.64160548 -29.2734375 71.41015625 C-29.24834201 69.89131244 -29.22553102 68.37242905 -29.20507812 66.85351562 C-29.15013757 63.14240377 -29.06393489 59.43278084 -28.9609375 55.72265625 C-29.73961182 55.58166504 -30.51828613 55.44067383 -31.32055664 55.29541016 C-37.7757081 53.89515261 -43.648426 48.8694327 -47.67578125 43.75390625 C-53.05809302 35.24690893 -54.28301855 26.10034071 -52.5234375 16.28125 C-50.24692434 8.10003084 -45.14241169 1.79749066 -38.0234375 -2.71484375 C-25.16609275 -9.73678241 -11.81806591 -8.49814987 0 0 Z M-34.2734375 16.53515625 C-36.19710628 20.16875283 -36.88877789 22.6095585 -36.9609375 26.72265625 C-35.07641418 32.79500918 -32.1509169 36.77322439 -26.7109375 40.09765625 C-21.22811884 41.3437514 -16.54658711 40.54484494 -11.5859375 37.97265625 C-7.81305719 34.73875884 -6.35132817 32.20056379 -5.0859375 27.41015625 C-4.91173444 22.27116595 -5.85263449 17.99356774 -9.4296875 14.140625 C-14.21800533 10.06820763 -17.3025931 9.36595582 -23.421875 9.4453125 C-28.53080956 10.00336535 -31.13031239 12.71243652 -34.2734375 16.53515625 Z " fill="#3589EE" transform="translate(230.9609375,43.27734375)"/>
<path d="M0 0 C5.14289456 4.26587777 9.02617244 9.00667347 11.484375 15.26953125 C11.484375 16.25953125 11.484375 17.24953125 11.484375 18.26953125 C12.42756592 18.24334717 13.37075684 18.21716309 14.3425293 18.19018555 C17.85570645 18.10476203 21.36777408 18.04218827 24.8815918 17.99487305 C26.39967301 17.96979016 27.91763418 17.93571465 29.43530273 17.89233398 C31.62253465 17.83139832 33.80816539 17.8032623 35.99609375 17.78125 C37.31053467 17.75506592 38.62497559 17.72888184 39.97924805 17.7019043 C44.35890188 18.4111538 45.79189038 19.81529217 48.484375 23.26953125 C49.109375 26.26953125 49.109375 26.26953125 48.484375 29.26953125 C45.79189038 32.72377033 44.35890188 34.1279087 39.97924805 34.8371582 C38.66480713 34.81097412 37.35036621 34.78479004 35.99609375 34.7578125 C35.29289505 34.75073776 34.58969635 34.74366302 33.8651886 34.7363739 C31.63297273 34.70852337 29.40332423 34.64581445 27.171875 34.58203125 C25.65303119 34.55693576 24.1341478 34.53412477 22.61523438 34.51367188 C18.90412252 34.45873132 15.19449959 34.37252864 11.484375 34.26953125 C11.34338379 35.04820557 11.20239258 35.82687988 11.05712891 36.62915039 C9.65687136 43.08430185 4.63115145 48.95701975 -0.484375 52.984375 C-8.99137232 58.36668677 -18.13794054 59.5916123 -27.95703125 57.83203125 C-36.13825041 55.55551809 -42.44079059 50.45100544 -46.953125 43.33203125 C-51.5279164 34.95547415 -52.81353123 26.60789121 -50.390625 17.33203125 C-47.52552185 8.65676543 -42.56924531 1.74855003 -34.515625 -2.73046875 C-22.99980963 -7.78899663 -10.46143482 -7.19629755 0 0 Z M-31.953125 16.89453125 C-35.06769862 21.62868315 -35.12580051 25.68341739 -34.515625 31.26953125 C-32.1733711 36.13421243 -29.26814122 38.75349325 -24.515625 41.26953125 C-18.87327502 42.80835397 -15.60159777 42.09507168 -10.515625 39.26953125 C-7.0013513 36.30192235 -4.54578443 33.80223275 -3.515625 29.26953125 C-3.52521397 24.01477485 -4.0773116 19.41921984 -7.515625 15.26953125 C-15.87904983 8.26759419 -24.58753263 8.96235486 -31.953125 16.89453125 Z " fill="#6B63E5" transform="translate(87.515625,275.73046875)"/>
<path d="M0 0 C3.45668955 2.68931272 4.85844604 4.1258967 5.56762695 8.50512695 C5.54144287 9.81956787 5.51525879 11.13400879 5.48828125 12.48828125 C5.48120651 13.19147995 5.47413177 13.89467865 5.46684265 14.6191864 C5.43899212 16.85140227 5.3762832 19.08105077 5.3125 21.3125 C5.28740451 22.83134381 5.26459352 24.3502272 5.24414062 25.86914062 C5.18920007 29.58025248 5.10299739 33.28987541 5 37 C5.60038086 37.18030762 6.20076172 37.36061523 6.81933594 37.54638672 C15.07112157 40.137374 20.40592962 43.87144225 24.875 51.4375 C29.60724763 60.83826128 30.17137461 69.73641299 26.9140625 79.67578125 C23.59575888 88.11334815 16.92451531 93.96409443 9 98 C0.11279324 101.40734805 -9.35124323 100.82122744 -18 97 C-26.56142004 91.9045742 -32.35695245 84.6273904 -35 75 C-36.11134792 64.0932832 -34.73781756 55.27436048 -27.75 46.6875 C-22.87170058 41.51608387 -17.98993672 38.30387823 -11 37 C-11.02618408 36.0212793 -11.05236816 35.04255859 -11.0793457 34.03417969 C-11.16997245 30.39655495 -11.22729276 26.75902954 -11.2746582 23.12060547 C-11.29977448 21.54719249 -11.33387472 19.97389588 -11.37719727 18.40087891 C-11.43798399 16.13675228 -11.46623582 13.87416978 -11.48828125 11.609375 C-11.51408768 10.90818542 -11.5398941 10.20699585 -11.56648254 9.48455811 C-11.568617 5.75215663 -11.28198645 4.29371017 -8.65698242 1.55957031 C-5.37038975 -0.36956265 -3.74922117 -0.70297897 0 0 Z M-16.4375 58.6875 C-18.94673855 64.00708572 -19.78520466 68.5981975 -17.9375 74.25 C-15.26429878 78.04422108 -12.20256941 80.89871529 -8 83 C-3.0747885 83.54035594 0.86941718 83.54435469 5.375 81.375 C8.95907713 78.13226355 11.59535241 75.53524104 12.3828125 70.6015625 C12.63977086 64.89708694 11.8849647 61.40995993 8 57 C4.47715365 53.27584814 1.33781653 52.18110496 -3.65625 51.83984375 C-9.13811845 52.21443809 -12.82029929 54.69930435 -16.4375 58.6875 Z " fill="#C028D6" transform="translate(215,376)"/>
<path d="M0 0 C7.70420793 6.0916993 13.33441518 13.22117083 14.6875 23.125 C15.57622693 31.86943816 13.73820382 39.71787825 8.5625 46.875 C2.77518299 53.78796852 -4.52644829 58.53542601 -13.609375 59.4609375 C-24.59020508 59.58515503 -32.45290212 57.69726238 -40.5546875 50.0546875 C-44.74564596 45.45394643 -47.1734043 41.23155714 -48.3125 35.125 C-49.2912207 35.15118408 -50.26994141 35.17736816 -51.27832031 35.2043457 C-54.91594505 35.29497245 -58.55347046 35.35229276 -62.19189453 35.3996582 C-63.76530751 35.42477448 -65.33860412 35.45887472 -66.91162109 35.50219727 C-69.17574772 35.56298399 -71.43833022 35.59123582 -73.703125 35.61328125 C-74.75490936 35.65199089 -74.75490936 35.65199089 -75.82794189 35.69148254 C-79.56034337 35.693617 -81.01878983 35.40698645 -83.75292969 32.78198242 C-85.68206265 29.49538975 -86.01547897 27.87422117 -85.3125 24.125 C-82.62318728 20.66831045 -81.1866033 19.26655396 -76.80737305 18.55737305 C-75.49293213 18.58355713 -74.17849121 18.60974121 -72.82421875 18.63671875 C-72.12102005 18.64379349 -71.41782135 18.65086823 -70.6933136 18.65815735 C-68.46109773 18.68600788 -66.23144923 18.7487168 -64 18.8125 C-62.48115619 18.83759549 -60.9622728 18.86040648 -59.44335938 18.88085938 C-55.73224752 18.93579993 -52.02262459 19.02200261 -48.3125 19.125 C-48.13219238 18.52461914 -47.95188477 17.92423828 -47.76611328 17.30566406 C-45.175126 9.05387843 -41.44105775 3.71907038 -33.875 -0.75 C-22.50520011 -6.47344164 -11.07174815 -6.26702725 0 0 Z M-30.625 18.3125 C-32.96902361 22.21920602 -33.6227705 25.58445612 -33.3125 30.125 C-32.044784 34.59743906 -30.05646811 37.45023822 -26.625 40.5625 C-21.30541428 43.07173855 -16.7143025 43.91020466 -11.0625 42.0625 C-7.26827892 39.38929878 -4.41378471 36.32756941 -2.3125 32.125 C-1.77214406 27.1997885 -1.76814531 23.25558282 -3.9375 18.75 C-7.18023645 15.16592287 -9.77725896 12.52964759 -14.7109375 11.7421875 C-21.84799584 11.42069839 -25.45278215 13.41986149 -30.625 18.3125 Z " fill="#C326D6" transform="translate(461.3125,272.875)"/>
<path d="M0 0 C6.67990764 3.9382412 11.99889321 9.21661243 15.24609375 16.32421875 C15.59888624 17.98687516 15.93441882 19.65336638 16.24609375 21.32421875 C17.7141748 21.28494263 17.7141748 21.28494263 19.21191406 21.24487305 C22.8495388 21.1542463 26.48706421 21.09692599 30.12548828 21.04956055 C31.69890126 21.02444427 33.27219787 20.99034403 34.84521484 20.94702148 C37.10934147 20.88623476 39.37192397 20.85798293 41.63671875 20.8359375 C42.68850311 20.79722786 42.68850311 20.79722786 43.76153564 20.75773621 C47.49393712 20.75560175 48.95238358 21.0422323 51.68652344 23.66723633 C53.6156564 26.953829 53.94907272 28.57499758 53.24609375 32.32421875 C50.55678103 35.7809083 49.12019705 37.18266479 44.7409668 37.8918457 C43.42652588 37.86566162 42.11208496 37.83947754 40.7578125 37.8125 C40.0546138 37.80542526 39.3514151 37.79835052 38.62690735 37.7910614 C36.39469148 37.76321087 34.16504298 37.70050195 31.93359375 37.63671875 C30.41474994 37.61162326 28.89586655 37.58881227 27.37695312 37.56835938 C23.66584127 37.51341882 19.95621834 37.42721614 16.24609375 37.32421875 C16.06361084 37.92532471 15.88112793 38.52643066 15.69311523 39.14575195 C13.26215487 46.84133131 10.35566172 51.82037601 3.296875 56.12109375 C-5.80849711 60.82497602 -13.82644286 62.85565223 -23.87890625 60.07421875 C-33.54532747 56.90635636 -40.19383944 50.27792658 -44.75390625 41.32421875 C-48.1612543 32.43701199 -47.57513369 22.97297552 -43.75390625 14.32421875 C-34.63843087 -0.99175614 -16.62280152 -7.77914357 0 0 Z M-25.1953125 17.79296875 C-29.36556166 22.64043786 -30.11218173 25.54442086 -30.03125 31.78515625 C-29.48020342 36.8299489 -26.74879381 39.42408239 -23.12890625 42.69921875 C-18.55546076 44.90124806 -14.74437149 45.12887031 -9.75390625 44.32421875 C-5.38518317 42.13985721 -2.27179414 39.52069857 0.24609375 35.32421875 C1.66156994 30.55726023 1.72235432 26.58400188 -0.31640625 22.01171875 C-2.51502864 18.25760841 -4.76165117 16.20735794 -8.75390625 14.32421875 C-15.15385554 12.66965376 -20.29689786 12.80163025 -25.1953125 17.79296875 Z " fill="#497BEB" transform="translate(82.75390625,182.67578125)"/>
<path d="M0 0 C6.91296852 5.78731701 11.66042601 13.08894829 12.5859375 22.171875 C12.71015503 33.15270508 10.82226238 41.01540212 3.1796875 49.1171875 C-1.42105357 53.30814596 -5.64344286 55.7359043 -11.75 56.875 C-11.72381592 57.8537207 -11.69763184 58.83244141 -11.6706543 59.84082031 C-11.58002755 63.47844505 -11.52270724 67.11597046 -11.4753418 70.75439453 C-11.45022552 72.32780751 -11.41612528 73.90110412 -11.37280273 75.47412109 C-11.31201601 77.73824772 -11.28376418 80.00083022 -11.26171875 82.265625 C-11.23591232 82.96681458 -11.2101059 83.66800415 -11.18351746 84.39044189 C-11.181383 88.12284337 -11.46801355 89.58128983 -14.09301758 92.31542969 C-17.37961025 94.24456265 -19.00077883 94.57797897 -22.75 93.875 C-26.20668955 91.18568728 -27.60844604 89.7491033 -28.31762695 85.36987305 C-28.29144287 84.05543213 -28.26525879 82.74099121 -28.23828125 81.38671875 C-28.23120651 80.68352005 -28.22413177 79.98032135 -28.21684265 79.2558136 C-28.18899212 77.02359773 -28.1262832 74.79394923 -28.0625 72.5625 C-28.03740451 71.04365619 -28.01459352 69.5247728 -27.99414062 68.00585938 C-27.93920007 64.29474752 -27.85299739 60.58512459 -27.75 56.875 C-28.35038086 56.69469238 -28.95076172 56.51438477 -29.56933594 56.32861328 C-37.82112157 53.737626 -43.15592962 50.00355775 -47.625 42.4375 C-52.35724763 33.03673872 -52.92137461 24.13858701 -49.6640625 14.19921875 C-46.34575888 5.76165185 -39.67451531 -0.08909443 -31.75 -4.125 C-21.0200797 -8.23884296 -9.28623818 -6.71538365 0 0 Z M-33.125 17.5 C-35.32702931 22.07344549 -35.55465156 25.88453476 -34.75 30.875 C-32.56563846 35.24372308 -29.94647982 38.35711211 -25.75 40.875 C-20.98304148 42.29047619 -17.00978313 42.35126057 -12.4375 40.3125 C-8.68338966 38.11387761 -6.63313919 35.86725508 -4.75 31.875 C-3.60097207 27.43049612 -3.37721228 24.01529186 -4.8125 19.625 C-7.48570122 15.83077892 -10.54743059 12.97628471 -14.75 10.875 C-22.91781029 9.97889132 -27.49352808 11.27574156 -33.125 17.5 Z " fill="#4C79EA" transform="translate(319.75,42.125)"/>
<path d="M0 0 C3.23613354 1.74253345 3.82395315 2.47185944 5 6 C5.10634074 8.60483968 5.15723998 11.1833195 5.16113281 13.78857422 C5.16609772 14.58077362 5.17106262 15.37297302 5.17617798 16.18917847 C5.19078815 18.81102363 5.19759945 21.43280831 5.203125 24.0546875 C5.2088771 25.87688193 5.21463483 27.69907635 5.22039795 29.52127075 C5.23090447 33.34279665 5.23674952 37.16430153 5.24023438 40.98583984 C5.24572041 45.88080245 5.2697522 50.77548707 5.29820633 55.67036247 C5.31683605 59.43475149 5.32203847 63.19907357 5.32357025 66.96350479 C5.32659622 68.76801194 5.33462287 70.57251793 5.34775543 72.37697983 C5.3648241 74.90241366 5.3629339 77.42716849 5.35644531 79.95263672 C5.3656601 80.69670776 5.37487488 81.44077881 5.3843689 82.20739746 C5.34871194 86.64117538 4.74140091 89.47722831 2 93 C-1.19233485 94.59616743 -4.53461497 94.51466114 -8 94 C-10.43119623 92.12984906 -11.64069173 90.71861655 -13 88 C-13.10859308 85.43297247 -13.15731443 82.89265962 -13.16113281 80.32495117 C-13.16609772 79.5328978 -13.17106262 78.74084442 -13.17617798 77.92478943 C-13.19081456 75.29750711 -13.19760448 72.67028519 -13.203125 70.04296875 C-13.20887572 68.21934507 -13.21463347 66.39572141 -13.22039795 64.57209778 C-13.23091254 60.74459552 -13.23675204 56.91711429 -13.24023438 53.08959961 C-13.2457166 48.18676123 -13.26973686 43.28420091 -13.29820633 38.3814497 C-13.31683804 34.61276948 -13.32203862 30.84415612 -13.32357025 27.07543373 C-13.32659668 25.26813552 -13.3346249 23.46083848 -13.34775543 21.65358543 C-13.36482532 19.12325332 -13.36293339 16.59359888 -13.35644531 14.06323242 C-13.3656601 13.31759033 -13.37487488 12.57194824 -13.3843689 11.80371094 C-13.34875513 7.36606218 -12.74490542 4.52557643 -10 1 C-6.81496713 -0.59251643 -3.4667595 -0.39129761 0 0 Z " fill="#9149DE" transform="translate(310,207)"/>
</svg>
